PathFileType  4	(X/Y/Z) C:\Users\antoi\Documents\MyRepositories\mobilecap\ResultsAnalysis
DataRate	CameraRate	NumFrames	NumMarkers	Units	OrigDataRate	OrigDataStartFrame	OrigNumFrames
100.0	100.0	4	51	mm	100.0	186	371
Frame#	Time	r_knee			r_shank_antsup			r_ankle			r_calc			r_5meta			r_toe			L_knee			L_shank_antsup			L_ankle			L_calc			L_5meta			L_toe			r_sh2			r_sh3			r_sh4			L_sh2			L_sh3			r_thigh1			r_thigh2			r_thigh3			r_thigh4			r_thigh5			L_thigh1			L_thigh2			L_thigh3			L_thigh4			r.ASIS			r.PSIS			L.ASIS			L.PSIS			C7			R_Shoulder			L_Shoulder			R_Sternum			L_Sternum			R_humerus			R_elbow_med			R_elbow_lat			R_forearm			R_wrist_radius			R_wrist_ulna			L_humerus			L_elbow_med			L_elbow_lat			L_forearm			L_wrist_radius			L_wrist_ulna			R_HJC			L_HJC			R_HJC_reg			L_HJC_reg			
		X1	Y1	Z1	X2	Y2	Z2	X3	Y3	Z3	X4	Y4	Z4	X5	Y5	Z5	X6	Y6	Z6	X7	Y7	Z7	X8	Y8	Z8	X9	Y9	Z9	X10	Y10	Z10	X11	Y11	Z11	X12	Y12	Z12	X13	Y13	Z13	X14	Y14	Z14	X15	Y15	Z15	X16	Y16	Z16	X17	Y17	Z17	X18	Y18	Z18	X19	Y19	Z19	X20	Y20	Z20	X21	Y21	Z21	X22	Y22	Z22	X23	Y23	Z23	X24	Y24	Z24	X25	Y25	Z25	X26	Y26	Z26	X27	Y27	Z27	X28	Y28	Z28	X29	Y29	Z29	X30	Y30	Z30	X31	Y31	Z31	X32	Y32	Z32	X33	Y33	Z33	X34	Y34	Z34	X35	Y35	Z35	X36	Y36	Z36	X37	Y37	Z37	X38	Y38	Z38	X39	Y39	Z39	X40	Y40	Z40	X41	Y41	Z41	X42	Y42	Z42	X43	Y43	Z43	X44	Y44	Z44	X45	Y45	Z45	X46	Y46	Z46	X47	Y47	Z47	X48	Y48	Z48	X49	Y49	Z49	X50	Y50	Z50	X51	Y51	Z51	

186	1.85000000	-729.14692	836.56194	-402.73173	-756.36325	723.86947	-413.47279	-990.59495	563.96941	-437.82576	-1035.56477	579.55412	-499.64566	-985.13405	432.53705	-406.12251	-942.83837	409.70893	-441.06303	-717.45203	833.92028	-761.84888	-734.25301	722.07911	-723.78811	-982.17272	561.60006	-749.87228	-1030.98112	575.43389	-699.16097	-966.03337	424.34386	-767.39818	-923.71703	403.67036	-717.42261	-834.74447	642.46947	-426.26082	-805.32902	760.96094	-370.47993	-892.29831	695.31863	-393.03420	-763.73602	775.08867	-789.47794	-847.96030	689.75120	-806.30900	-685.87620	1146.32793	-416.70255	-663.45320	1039.72090	-405.76180	-706.52544	1008.22054	-365.08318	-790.46538	1124.46651	-381.65047	-762.42050	1013.08970	-368.92237	-692.90838	1127.65141	-770.38115	-654.60896	996.53915	-772.03121	-799.18571	1108.50302	-793.78252	-761.18080	971.44986	-788.97267	-660.55177	1287.29292	-466.84246	-824.52757	1373.28811	-536.12440	-659.03062	1287.67760	-707.53308	-827.19226	1375.32170	-653.56460	-744.20909	1808.50223	-586.80116	-677.41622	1790.68042	-446.70539	-674.28558	1797.40061	-729.34444	-620.52203	1747.97665	-569.28724	-617.24708	1743.78337	-609.78878	-625.94113	1688.00313	-375.68831	-658.29773	1475.15736	-372.41112	-612.93912	1502.91392	-315.79159	-519.90301	1410.59711	-313.36651	-456.26231	1327.82137	-314.77875	-472.89152	1318.70323	-282.92376	-614.69002	1674.29738	-801.88627	-646.57240	1467.06212	-800.08810	-612.46414	1496.34011	-858.77614	-532.19781	1431.13772	-867.97721	-461.66241	1320.63319	-866.02510	-475.98914	1314.52912	-892.45301	-765.34226	1240.52106	-492.89755	-759.15363	1235.60463	-682.11035	-744.95026	1237.71258	-499.35313	-748.55260	1240.46260	-658.14725	
187	1.86000000	-711.49400	837.26648	-401.71697	-736.75891	724.51994	-412.09972	-968.86802	561.17320	-437.46883	-1013.94313	575.15606	-500.00308	-960.12075	431.08133	-404.04307	-916.86581	408.81378	-438.39085	-699.61403	835.46341	-763.84333	-714.23483	722.86168	-726.70332	-959.17947	557.02232	-751.51658	-1008.31336	569.66841	-701.26039	-939.42729	420.12604	-768.73581	-896.00156	401.05207	-719.23775	-813.92656	642.12882	-424.71574	-786.73294	761.47528	-369.99563	-872.78921	694.36552	-392.71649	-745.92841	775.97414	-790.51342	-828.19224	688.98839	-808.03052	-674.40597	1147.33946	-417.45063	-649.90104	1041.37597	-406.19050	-691.73192	1008.96625	-364.82251	-778.29930	1123.43246	-380.79605	-747.76121	1012.79530	-367.93747	-681.42432	1128.85335	-770.88510	-640.11322	999.13652	-772.24672	-786.97021	1107.45858	-795.67788	-745.37346	971.49184	-791.17529	-652.30099	1285.52310	-467.20873	-816.13274	1371.63143	-536.07904	-651.17049	1286.09771	-707.82800	-819.33424	1373.18129	-653.80599	-730.14353	1807.18779	-586.63584	-663.41889	1788.06970	-445.99404	-660.20946	1794.83399	-730.49662	-606.84995	1745.89085	-569.55873	-603.62017	1741.63522	-609.78595	-614.69082	1683.10523	-374.73108	-652.50584	1471.39398	-372.91270	-607.22708	1497.87966	-315.08450	-518.00637	1402.43369	-310.60685	-457.25102	1317.77753	-309.73804	-475.06723	1309.00925	-278.47144	-603.75075	1668.94911	-803.04213	-641.68082	1463.10955	-801.36117	-607.07802	1491.47613	-860.40450	-529.50654	1423.54085	-870.74822	-463.59902	1310.89678	-871.06757	-477.98656	1305.37618	-897.09993	-756.98800	1238.74153	-493.04515	-751.15078	1233.77843	-682.26776	-736.59914	1236.67272	-499.11351	-740.91521	1238.76298	-657.85144	
188	1.87000000	-694.26922	837.35740	-400.57253	-717.46946	724.27194	-410.33887	-946.00097	556.07598	-436.53657	-991.40724	567.96820	-499.86497	-932.82434	427.45532	-401.55018	-889.02605	405.84482	-435.84634	-682.65514	836.13968	-765.96063	-694.53663	722.69177	-729.94846	-935.02559	549.86374	-753.36634	-984.44201	561.17485	-703.27328	-910.99203	413.51206	-769.92065	-866.51808	396.24892	-720.98657	-792.79705	640.50004	-422.75811	-768.76352	760.68124	-369.14876	-852.68549	691.04466	-392.30016	-728.58566	775.87920	-792.66303	-808.70243	686.26924	-808.26472	-663.55794	1147.97477	-417.78647	-637.48261	1043.53645	-404.50423	-677.79142	1009.30495	-364.30204	-766.70986	1121.99336	-380.12302	-733.89198	1012.03141	-367.00754	-670.51949	1129.84727	-771.75066	-626.74136	1001.31788	-772.89611	-775.78104	1106.15737	-797.86694	-730.54457	971.19373	-793.28352	-644.25228	1283.09831	-467.86049	-807.96176	1369.01460	-535.98599	-643.19487	1283.70822	-708.17710	-811.63024	1370.08088	-653.68676	-715.59347	1805.17919	-586.54727	-648.99633	1784.46945	-445.26205	-645.63355	1791.21871	-731.73276	-592.84201	1742.90092	-569.95426	-589.63720	1738.51706	-609.75768	-603.53881	1677.14306	-373.48288	-646.93502	1466.79196	-373.84767	-602.44596	1491.79311	-314.81878	-516.96372	1393.26167	-307.99061	-459.37913	1306.72610	-304.70369	-478.25875	1297.87868	-274.40422	-592.97683	1662.51943	-804.55170	-637.25189	1458.30641	-802.29517	-602.42256	1485.56565	-861.70240	-527.88723	1414.99207	-873.92821	-466.99677	1299.69174	-875.54348	-481.86855	1294.91364	-901.65997	-748.59453	1236.06188	-493.19130	-743.15041	1231.10336	-682.42572	-728.22904	1234.81737	-499.17333	-733.17065	1236.25299	-657.70104	
189	1.88000000	-677.52497	836.70328	-399.38299	-698.50461	722.83348	-408.27491	-921.85311	548.29943	-435.67717	-967.89472	558.37202	-498.64706	-903.90468	421.38618	-398.98223	-859.56783	400.91822	-433.32381	-666.66247	835.75345	-768.00101	-675.09465	721.50367	-733.22194	-909.83382	540.42635	-755.44702	-959.51021	550.11936	-704.61607	-880.89397	404.98204	-771.48355	-835.45053	389.66061	-722.93632	-771.43323	637.15254	-420.73140	-751.21018	758.32848	-368.09178	-832.78191	686.16980	-391.86566	-711.51528	774.73523	-795.71022	-789.30816	682.01411	-808.28784	-653.32537	1147.93911	-417.93268	-625.79965	1045.35252	-401.94602	-664.48438	1009.38324	-363.22618	-755.58104	1119.94005	-379.68353	-720.53369	1010.77720	-365.94851	-660.03405	1130.29998	-772.70342	-613.84517	1002.37526	-773.73548	-765.05012	1104.20234	-799.47287	-716.69444	970.28486	-795.16570	-636.20385	1280.26999	-468.73439	-799.99179	1365.45384	-535.98519	-634.80257	1280.77986	-708.24230	-803.99130	1366.16541	-653.25694	-700.19536	1802.25485	-586.88215	-634.12665	1779.85030	-444.48487	-630.68879	1786.51314	-732.95633	-578.55671	1738.79454	-570.19368	-575.33557	1734.37240	-609.84033	-592.50948	1670.28149	-372.11907	-641.81948	1461.91454	-373.88891	-598.32540	1484.89279	-314.61578	-516.84169	1383.23378	-305.45457	-463.24445	1294.44903	-300.34288	-482.69320	1286.08473	-270.68111	-582.37869	1655.23980	-806.33163	-633.24284	1452.72593	-802.83035	-598.42832	1478.90418	-862.74528	-527.32864	1405.54672	-877.12558	-471.85663	1287.56239	-879.94260	-487.37143	1283.52004	-905.81074	-739.98617	1232.62942	-493.30237	-734.77731	1227.72731	-682.54500	-719.52536	1232.21673	-499.52408	-724.91353	1233.17490	-657.50799	
